<svg xmlns="http://www.w3.org/2000/svg" viewBox="0 0 256 256" role="img" aria-label="Skel">
  <defs>
    <linearGradient id="background" x1="32" y1="24" x2="224" y2="232" gradientUnits="userSpaceOnUse">
      <stop stop-color="#30343b"/>
      <stop offset="1" stop-color="#181a1f"/>
    </linearGradient>
    <linearGradient id="mark" x1="72" y1="56" x2="184" y2="200" gradientUnits="userSpaceOnUse">
      <stop stop-color="#7dd3fc"/>
      <stop offset="1" stop-color="#60a5fa"/>
    </linearGradient>
  </defs>
  <rect width="256" height="256" rx="52" fill="url(#background)"/>
  <path d="M92 52H82c-16 0-24 8-24 24v28c0 13-6 21-18 24 12 3 18 11 18 24v28c0 16 8 24 24 24h10" fill="none" stroke="url(#mark)" stroke-width="12" stroke-linecap="round" stroke-linejoin="round"/>
  <path d="M164 52h10c16 0 24 8 24 24v28c0 13 6 21 18 24-12 3-18 11-18 24v28c0 16-8 24-24 24h-10" fill="none" stroke="url(#mark)" stroke-width="12" stroke-linecap="round" stroke-linejoin="round"/>
  <path d="M128 78v100M96 104h64M102 134h52M110 164h36" fill="none" stroke="#e2e8f0" stroke-width="10" stroke-linecap="round"/>
  <circle cx="128" cy="78" r="12" fill="#f8fafc"/>
  <circle cx="128" cy="178" r="12" fill="#f8fafc"/>
</svg>
